<svg xmlns="http://www.w3.org/2000/svg" version="1.1" viewBox="0 0 83 83 ">
<style type="text/css" >
     <![CDATA[
      rect.pixel {
          fill:   #ff0000;
      }
    ]]>
  </style>

   <rect width="83" height="83" fill="rgb(128, 128, 128)"/>
   <rect x="1" y="1" width="81.1" height="81.1" fill="rgb(255, 255, 255)"/>

  <rect class="pixel" x="1" y="1" width=".9" height=".9"/>
  <rect class="pixel" x="2" y="1" width=".9" height=".9"/>
  <rect class="pixel" x="3" y="1" width=".9" height=".9"/>
  <rect class="pixel" x="4" y="1" width=".9" height=".9"/>
  <rect class="pixel" x="2" y="2" width=".9" height=".9"/>
  <rect class="pixel" x="1" y="2" width=".9" height=".9"/>
  <rect class="pixel" x="3" y="2" width=".9" height=".9"/>
  <rect class="pixel" x="4" y="2" width=".9" height=".9"/>
  <rect class="pixel" x="5" y="2" width=".9" height=".9"/>
  <rect class="pixel" x="7" y="2" width=".9" height=".9"/>
  <rect class="pixel" x="3" y="3" width=".9" height=".9"/>
  <rect class="pixel" x="1" y="3" width=".9" height=".9"/>
  <rect class="pixel" x="2" y="3" width=".9" height=".9"/>
  <rect class="pixel" x="4" y="3" width=".9" height=".9"/>
  <rect class="pixel" x="6" y="3" width=".9" height=".9"/>
  <rect class="pixel" x="8" y="3" width=".9" height=".9"/>
  <rect class="pixel" x="4" y="4" width=".9" height=".9"/>
  <rect class="pixel" x="1" y="4" width=".9" height=".9"/>
  <rect class="pixel" x="2" y="4" width=".9" height=".9"/>
  <rect class="pixel" x="3" y="4" width=".9" height=".9"/>
  <rect class="pixel" x="5" y="4" width=".9" height=".9"/>
  <rect class="pixel" x="6" y="4" width=".9" height=".9"/>
  <rect class="pixel" x="7" y="4" width=".9" height=".9"/>
  <rect class="pixel" x="8" y="4" width=".9" height=".9"/>
  <rect class="pixel" x="9" y="4" width=".9" height=".9"/>
  <rect class="pixel" x="5" y="5" width=".9" height=".9"/>
  <rect class="pixel" x="2" y="5" width=".9" height=".9"/>
  <rect class="pixel" x="4" y="5" width=".9" height=".9"/>
  <rect class="pixel" x="7" y="5" width=".9" height=".9"/>
  <rect class="pixel" x="10" y="5" width=".9" height=".9"/>
  <rect class="pixel" x="12" y="5" width=".9" height=".9"/>
  <rect class="pixel" x="6" y="6" width=".9" height=".9"/>
  <rect class="pixel" x="3" y="6" width=".9" height=".9"/>
  <rect class="pixel" x="4" y="6" width=".9" height=".9"/>
  <rect class="pixel" x="8" y="6" width=".9" height=".9"/>
  <rect class="pixel" x="11" y="6" width=".9" height=".9"/>
  <rect class="pixel" x="14" y="6" width=".9" height=".9"/>
  <rect class="pixel" x="7" y="7" width=".9" height=".9"/>
  <rect class="pixel" x="2" y="7" width=".9" height=".9"/>
  <rect class="pixel" x="4" y="7" width=".9" height=".9"/>
  <rect class="pixel" x="5" y="7" width=".9" height=".9"/>
  <rect class="pixel" x="8" y="7" width=".9" height=".9"/>
  <rect class="pixel" x="9" y="7" width=".9" height=".9"/>
  <rect class="pixel" x="10" y="7" width=".9" height=".9"/>
  <rect class="pixel" x="12" y="7" width=".9" height=".9"/>
  <rect class="pixel" x="13" y="7" width=".9" height=".9"/>
  <rect class="pixel" x="8" y="8" width=".9" height=".9"/>
  <rect class="pixel" x="3" y="8" width=".9" height=".9"/>
  <rect class="pixel" x="4" y="8" width=".9" height=".9"/>
  <rect class="pixel" x="6" y="8" width=".9" height=".9"/>
  <rect class="pixel" x="7" y="8" width=".9" height=".9"/>
  <rect class="pixel" x="9" y="8" width=".9" height=".9"/>
  <rect class="pixel" x="11" y="8" width=".9" height=".9"/>
  <rect class="pixel" x="14" y="8" width=".9" height=".9"/>
  <rect class="pixel" x="15" y="8" width=".9" height=".9"/>
  <rect class="pixel" x="9" y="9" width=".9" height=".9"/>
  <rect class="pixel" x="4" y="9" width=".9" height=".9"/>
  <rect class="pixel" x="7" y="9" width=".9" height=".9"/>
  <rect class="pixel" x="8" y="9" width=".9" height=".9"/>
  <rect class="pixel" x="12" y="9" width=".9" height=".9"/>
  <rect class="pixel" x="13" y="9" width=".9" height=".9"/>
  <rect class="pixel" x="14" y="9" width=".9" height=".9"/>
  <rect class="pixel" x="15" y="9" width=".9" height=".9"/>
  <rect class="pixel" x="16" y="9" width=".9" height=".9"/>
  <rect class="pixel" x="10" y="10" width=".9" height=".9"/>
  <rect class="pixel" x="5" y="10" width=".9" height=".9"/>
  <rect class="pixel" x="7" y="10" width=".9" height=".9"/>
  <rect class="pixel" x="12" y="10" width=".9" height=".9"/>
  <rect class="pixel" x="17" y="10" width=".9" height=".9"/>
  <rect class="pixel" x="19" y="10" width=".9" height=".9"/>
  <rect class="pixel" x="11" y="11" width=".9" height=".9"/>
  <rect class="pixel" x="6" y="11" width=".9" height=".9"/>
  <rect class="pixel" x="8" y="11" width=".9" height=".9"/>
  <rect class="pixel" x="14" y="11" width=".9" height=".9"/>
  <rect class="pixel" x="18" y="11" width=".9" height=".9"/>
  <rect class="pixel" x="21" y="11" width=".9" height=".9"/>
  <rect class="pixel" x="12" y="12" width=".9" height=".9"/>
  <rect class="pixel" x="5" y="12" width=".9" height=".9"/>
  <rect class="pixel" x="7" y="12" width=".9" height=".9"/>
  <rect class="pixel" x="9" y="12" width=".9" height=".9"/>
  <rect class="pixel" x="10" y="12" width=".9" height=".9"/>
  <rect class="pixel" x="13" y="12" width=".9" height=".9"/>
  <rect class="pixel" x="17" y="12" width=".9" height=".9"/>
  <rect class="pixel" x="19" y="12" width=".9" height=".9"/>
  <rect class="pixel" x="20" y="12" width=".9" height=".9"/>
  <rect class="pixel" x="13" y="13" width=".9" height=".9"/>
  <rect class="pixel" x="7" y="13" width=".9" height=".9"/>
  <rect class="pixel" x="9" y="13" width=".9" height=".9"/>
  <rect class="pixel" x="12" y="13" width=".9" height=".9"/>
  <rect class="pixel" x="15" y="13" width=".9" height=".9"/>
  <rect class="pixel" x="16" y="13" width=".9" height=".9"/>
  <rect class="pixel" x="19" y="13" width=".9" height=".9"/>
  <rect class="pixel" x="20" y="13" width=".9" height=".9"/>
  <rect class="pixel" x="23" y="13" width=".9" height=".9"/>
  <rect class="pixel" x="14" y="14" width=".9" height=".9"/>
  <rect class="pixel" x="6" y="14" width=".9" height=".9"/>
  <rect class="pixel" x="8" y="14" width=".9" height=".9"/>
  <rect class="pixel" x="9" y="14" width=".9" height=".9"/>
  <rect class="pixel" x="11" y="14" width=".9" height=".9"/>
  <rect class="pixel" x="15" y="14" width=".9" height=".9"/>
  <rect class="pixel" x="18" y="14" width=".9" height=".9"/>
  <rect class="pixel" x="21" y="14" width=".9" height=".9"/>
  <rect class="pixel" x="22" y="14" width=".9" height=".9"/>
  <rect class="pixel" x="15" y="15" width=".9" height=".9"/>
  <rect class="pixel" x="8" y="15" width=".9" height=".9"/>
  <rect class="pixel" x="9" y="15" width=".9" height=".9"/>
  <rect class="pixel" x="13" y="15" width=".9" height=".9"/>
  <rect class="pixel" x="14" y="15" width=".9" height=".9"/>
  <rect class="pixel" x="16" y="15" width=".9" height=".9"/>
  <rect class="pixel" x="21" y="15" width=".9" height=".9"/>
  <rect class="pixel" x="22" y="15" width=".9" height=".9"/>
  <rect class="pixel" x="24" y="15" width=".9" height=".9"/>
  <rect class="pixel" x="16" y="16" width=".9" height=".9"/>
  <rect class="pixel" x="9" y="16" width=".9" height=".9"/>
  <rect class="pixel" x="13" y="16" width=".9" height=".9"/>
  <rect class="pixel" x="15" y="16" width=".9" height=".9"/>
  <rect class="pixel" x="20" y="16" width=".9" height=".9"/>
  <rect class="pixel" x="22" y="16" width=".9" height=".9"/>
  <rect class="pixel" x="23" y="16" width=".9" height=".9"/>
  <rect class="pixel" x="24" y="16" width=".9" height=".9"/>
  <rect class="pixel" x="25" y="16" width=".9" height=".9"/>
  <rect class="pixel" x="17" y="17" width=".9" height=".9"/>
  <rect class="pixel" x="10" y="17" width=".9" height=".9"/>
  <rect class="pixel" x="12" y="17" width=".9" height=".9"/>
  <rect class="pixel" x="19" y="17" width=".9" height=".9"/>
  <rect class="pixel" x="26" y="17" width=".9" height=".9"/>
  <rect class="pixel" x="28" y="17" width=".9" height=".9"/>
  <rect class="pixel" x="18" y="18" width=".9" height=".9"/>
  <rect class="pixel" x="11" y="18" width=".9" height=".9"/>
  <rect class="pixel" x="14" y="18" width=".9" height=".9"/>
  <rect class="pixel" x="21" y="18" width=".9" height=".9"/>
  <rect class="pixel" x="27" y="18" width=".9" height=".9"/>
  <rect class="pixel" x="32" y="18" width=".9" height=".9"/>
  <rect class="pixel" x="19" y="19" width=".9" height=".9"/>
  <rect class="pixel" x="10" y="19" width=".9" height=".9"/>
  <rect class="pixel" x="12" y="19" width=".9" height=".9"/>
  <rect class="pixel" x="13" y="19" width=".9" height=".9"/>
  <rect class="pixel" x="17" y="19" width=".9" height=".9"/>
  <rect class="pixel" x="20" y="19" width=".9" height=".9"/>
  <rect class="pixel" x="26" y="19" width=".9" height=".9"/>
  <rect class="pixel" x="28" y="19" width=".9" height=".9"/>
  <rect class="pixel" x="29" y="19" width=".9" height=".9"/>
  <rect class="pixel" x="20" y="20" width=".9" height=".9"/>
  <rect class="pixel" x="12" y="20" width=".9" height=".9"/>
  <rect class="pixel" x="13" y="20" width=".9" height=".9"/>
  <rect class="pixel" x="16" y="20" width=".9" height=".9"/>
  <rect class="pixel" x="19" y="20" width=".9" height=".9"/>
  <rect class="pixel" x="23" y="20" width=".9" height=".9"/>
  <rect class="pixel" x="28" y="20" width=".9" height=".9"/>
  <rect class="pixel" x="29" y="20" width=".9" height=".9"/>
  <rect class="pixel" x="30" y="20" width=".9" height=".9"/>
  <rect class="pixel" x="21" y="21" width=".9" height=".9"/>
  <rect class="pixel" x="11" y="21" width=".9" height=".9"/>
  <rect class="pixel" x="14" y="21" width=".9" height=".9"/>
  <rect class="pixel" x="15" y="21" width=".9" height=".9"/>
  <rect class="pixel" x="18" y="21" width=".9" height=".9"/>
  <rect class="pixel" x="22" y="21" width=".9" height=".9"/>
  <rect class="pixel" x="27" y="21" width=".9" height=".9"/>
  <rect class="pixel" x="32" y="21" width=".9" height=".9"/>
  <rect class="pixel" x="33" y="21" width=".9" height=".9"/>
  <rect class="pixel" x="22" y="22" width=".9" height=".9"/>
  <rect class="pixel" x="14" y="22" width=".9" height=".9"/>
  <rect class="pixel" x="15" y="22" width=".9" height=".9"/>
  <rect class="pixel" x="16" y="22" width=".9" height=".9"/>
  <rect class="pixel" x="21" y="22" width=".9" height=".9"/>
  <rect class="pixel" x="24" y="22" width=".9" height=".9"/>
  <rect class="pixel" x="32" y="22" width=".9" height=".9"/>
  <rect class="pixel" x="33" y="22" width=".9" height=".9"/>
  <rect class="pixel" x="34" y="22" width=".9" height=".9"/>
  <rect class="pixel" x="23" y="23" width=".9" height=".9"/>
  <rect class="pixel" x="13" y="23" width=".9" height=".9"/>
  <rect class="pixel" x="16" y="23" width=".9" height=".9"/>
  <rect class="pixel" x="20" y="23" width=".9" height=".9"/>
  <rect class="pixel" x="24" y="23" width=".9" height=".9"/>
  <rect class="pixel" x="25" y="23" width=".9" height=".9"/>
  <rect class="pixel" x="29" y="23" width=".9" height=".9"/>
  <rect class="pixel" x="30" y="23" width=".9" height=".9"/>
  <rect class="pixel" x="31" y="23" width=".9" height=".9"/>
  <rect class="pixel" x="24" y="24" width=".9" height=".9"/>
  <rect class="pixel" x="15" y="24" width=".9" height=".9"/>
  <rect class="pixel" x="16" y="24" width=".9" height=".9"/>
  <rect class="pixel" x="22" y="24" width=".9" height=".9"/>
  <rect class="pixel" x="23" y="24" width=".9" height=".9"/>
  <rect class="pixel" x="25" y="24" width=".9" height=".9"/>
  <rect class="pixel" x="33" y="24" width=".9" height=".9"/>
  <rect class="pixel" x="34" y="24" width=".9" height=".9"/>
  <rect class="pixel" x="35" y="24" width=".9" height=".9"/>
  <rect class="pixel" x="25" y="25" width=".9" height=".9"/>
  <rect class="pixel" x="16" y="25" width=".9" height=".9"/>
  <rect class="pixel" x="23" y="25" width=".9" height=".9"/>
  <rect class="pixel" x="24" y="25" width=".9" height=".9"/>
  <rect class="pixel" x="30" y="25" width=".9" height=".9"/>
  <rect class="pixel" x="31" y="25" width=".9" height=".9"/>
  <rect class="pixel" x="34" y="25" width=".9" height=".9"/>
  <rect class="pixel" x="35" y="25" width=".9" height=".9"/>
  <rect class="pixel" x="36" y="25" width=".9" height=".9"/>
  <rect class="pixel" x="26" y="26" width=".9" height=".9"/>
  <rect class="pixel" x="17" y="26" width=".9" height=".9"/>
  <rect class="pixel" x="19" y="26" width=".9" height=".9"/>
  <rect class="pixel" x="28" y="26" width=".9" height=".9"/>
  <rect class="pixel" x="37" y="26" width=".9" height=".9"/>
  <rect class="pixel" x="39" y="26" width=".9" height=".9"/>
  <rect class="pixel" x="27" y="27" width=".9" height=".9"/>
  <rect class="pixel" x="18" y="27" width=".9" height=".9"/>
  <rect class="pixel" x="21" y="27" width=".9" height=".9"/>
  <rect class="pixel" x="32" y="27" width=".9" height=".9"/>
  <rect class="pixel" x="38" y="27" width=".9" height=".9"/>
  <rect class="pixel" x="43" y="27" width=".9" height=".9"/>
  <rect class="pixel" x="28" y="28" width=".9" height=".9"/>
  <rect class="pixel" x="17" y="28" width=".9" height=".9"/>
  <rect class="pixel" x="19" y="28" width=".9" height=".9"/>
  <rect class="pixel" x="20" y="28" width=".9" height=".9"/>
  <rect class="pixel" x="26" y="28" width=".9" height=".9"/>
  <rect class="pixel" x="29" y="28" width=".9" height=".9"/>
  <rect class="pixel" x="37" y="28" width=".9" height=".9"/>
  <rect class="pixel" x="39" y="28" width=".9" height=".9"/>
  <rect class="pixel" x="40" y="28" width=".9" height=".9"/>
  <rect class="pixel" x="29" y="29" width=".9" height=".9"/>
  <rect class="pixel" x="19" y="29" width=".9" height=".9"/>
  <rect class="pixel" x="20" y="29" width=".9" height=".9"/>
  <rect class="pixel" x="23" y="29" width=".9" height=".9"/>
  <rect class="pixel" x="28" y="29" width=".9" height=".9"/>
  <rect class="pixel" x="30" y="29" width=".9" height=".9"/>
  <rect class="pixel" x="39" y="29" width=".9" height=".9"/>
  <rect class="pixel" x="40" y="29" width=".9" height=".9"/>
  <rect class="pixel" x="41" y="29" width=".9" height=".9"/>
  <rect class="pixel" x="30" y="30" width=".9" height=".9"/>
  <rect class="pixel" x="20" y="30" width=".9" height=".9"/>
  <rect class="pixel" x="23" y="30" width=".9" height=".9"/>
  <rect class="pixel" x="25" y="30" width=".9" height=".9"/>
  <rect class="pixel" x="29" y="30" width=".9" height=".9"/>
  <rect class="pixel" x="31" y="30" width=".9" height=".9"/>
  <rect class="pixel" x="40" y="30" width=".9" height=".9"/>
  <rect class="pixel" x="41" y="30" width=".9" height=".9"/>
  <rect class="pixel" x="42" y="30" width=".9" height=".9"/>
  <rect class="pixel" x="31" y="31" width=".9" height=".9"/>
  <rect class="pixel" x="23" y="31" width=".9" height=".9"/>
  <rect class="pixel" x="25" y="31" width=".9" height=".9"/>
  <rect class="pixel" x="30" y="31" width=".9" height=".9"/>
  <rect class="pixel" x="35" y="31" width=".9" height=".9"/>
  <rect class="pixel" x="36" y="31" width=".9" height=".9"/>
  <rect class="pixel" x="41" y="31" width=".9" height=".9"/>
  <rect class="pixel" x="42" y="31" width=".9" height=".9"/>
  <rect class="pixel" x="47" y="31" width=".9" height=".9"/>
  <rect class="pixel" x="32" y="32" width=".9" height=".9"/>
  <rect class="pixel" x="18" y="32" width=".9" height=".9"/>
  <rect class="pixel" x="21" y="32" width=".9" height=".9"/>
  <rect class="pixel" x="22" y="32" width=".9" height=".9"/>
  <rect class="pixel" x="27" y="32" width=".9" height=".9"/>
  <rect class="pixel" x="33" y="32" width=".9" height=".9"/>
  <rect class="pixel" x="38" y="32" width=".9" height=".9"/>
  <rect class="pixel" x="43" y="32" width=".9" height=".9"/>
  <rect class="pixel" x="44" y="32" width=".9" height=".9"/>
  <rect class="pixel" x="33" y="33" width=".9" height=".9"/>
  <rect class="pixel" x="21" y="33" width=".9" height=".9"/>
  <rect class="pixel" x="22" y="33" width=".9" height=".9"/>
  <rect class="pixel" x="24" y="33" width=".9" height=".9"/>
  <rect class="pixel" x="32" y="33" width=".9" height=".9"/>
  <rect class="pixel" x="34" y="33" width=".9" height=".9"/>
  <rect class="pixel" x="43" y="33" width=".9" height=".9"/>
  <rect class="pixel" x="44" y="33" width=".9" height=".9"/>
  <rect class="pixel" x="45" y="33" width=".9" height=".9"/>
  <rect class="pixel" x="34" y="34" width=".9" height=".9"/>
  <rect class="pixel" x="22" y="34" width=".9" height=".9"/>
  <rect class="pixel" x="24" y="34" width=".9" height=".9"/>
  <rect class="pixel" x="25" y="34" width=".9" height=".9"/>
  <rect class="pixel" x="33" y="34" width=".9" height=".9"/>
  <rect class="pixel" x="35" y="34" width=".9" height=".9"/>
  <rect class="pixel" x="44" y="34" width=".9" height=".9"/>
  <rect class="pixel" x="45" y="34" width=".9" height=".9"/>
  <rect class="pixel" x="46" y="34" width=".9" height=".9"/>
  <rect class="pixel" x="35" y="35" width=".9" height=".9"/>
  <rect class="pixel" x="24" y="35" width=".9" height=".9"/>
  <rect class="pixel" x="25" y="35" width=".9" height=".9"/>
  <rect class="pixel" x="31" y="35" width=".9" height=".9"/>
  <rect class="pixel" x="34" y="35" width=".9" height=".9"/>
  <rect class="pixel" x="36" y="35" width=".9" height=".9"/>
  <rect class="pixel" x="45" y="35" width=".9" height=".9"/>
  <rect class="pixel" x="46" y="35" width=".9" height=".9"/>
  <rect class="pixel" x="48" y="35" width=".9" height=".9"/>
  <rect class="pixel" x="36" y="36" width=".9" height=".9"/>
  <rect class="pixel" x="25" y="36" width=".9" height=".9"/>
  <rect class="pixel" x="31" y="36" width=".9" height=".9"/>
  <rect class="pixel" x="35" y="36" width=".9" height=".9"/>
  <rect class="pixel" x="42" y="36" width=".9" height=".9"/>
  <rect class="pixel" x="46" y="36" width=".9" height=".9"/>
  <rect class="pixel" x="47" y="36" width=".9" height=".9"/>
  <rect class="pixel" x="48" y="36" width=".9" height=".9"/>
  <rect class="pixel" x="49" y="36" width=".9" height=".9"/>
  <rect class="pixel" x="37" y="37" width=".9" height=".9"/>
  <rect class="pixel" x="26" y="37" width=".9" height=".9"/>
  <rect class="pixel" x="28" y="37" width=".9" height=".9"/>
  <rect class="pixel" x="39" y="37" width=".9" height=".9"/>
  <rect class="pixel" x="50" y="37" width=".9" height=".9"/>
  <rect class="pixel" x="52" y="37" width=".9" height=".9"/>
  <rect class="pixel" x="38" y="38" width=".9" height=".9"/>
  <rect class="pixel" x="27" y="38" width=".9" height=".9"/>
  <rect class="pixel" x="32" y="38" width=".9" height=".9"/>
  <rect class="pixel" x="43" y="38" width=".9" height=".9"/>
  <rect class="pixel" x="51" y="38" width=".9" height=".9"/>
  <rect class="pixel" x="56" y="38" width=".9" height=".9"/>
  <rect class="pixel" x="39" y="39" width=".9" height=".9"/>
  <rect class="pixel" x="26" y="39" width=".9" height=".9"/>
  <rect class="pixel" x="28" y="39" width=".9" height=".9"/>
  <rect class="pixel" x="29" y="39" width=".9" height=".9"/>
  <rect class="pixel" x="37" y="39" width=".9" height=".9"/>
  <rect class="pixel" x="40" y="39" width=".9" height=".9"/>
  <rect class="pixel" x="50" y="39" width=".9" height=".9"/>
  <rect class="pixel" x="52" y="39" width=".9" height=".9"/>
  <rect class="pixel" x="53" y="39" width=".9" height=".9"/>
  <rect class="pixel" x="40" y="40" width=".9" height=".9"/>
  <rect class="pixel" x="28" y="40" width=".9" height=".9"/>
  <rect class="pixel" x="29" y="40" width=".9" height=".9"/>
  <rect class="pixel" x="30" y="40" width=".9" height=".9"/>
  <rect class="pixel" x="39" y="40" width=".9" height=".9"/>
  <rect class="pixel" x="41" y="40" width=".9" height=".9"/>
  <rect class="pixel" x="52" y="40" width=".9" height=".9"/>
  <rect class="pixel" x="53" y="40" width=".9" height=".9"/>
  <rect class="pixel" x="54" y="40" width=".9" height=".9"/>
  <rect class="pixel" x="41" y="41" width=".9" height=".9"/>
  <rect class="pixel" x="29" y="41" width=".9" height=".9"/>
  <rect class="pixel" x="30" y="41" width=".9" height=".9"/>
  <rect class="pixel" x="31" y="41" width=".9" height=".9"/>
  <rect class="pixel" x="40" y="41" width=".9" height=".9"/>
  <rect class="pixel" x="42" y="41" width=".9" height=".9"/>
  <rect class="pixel" x="53" y="41" width=".9" height=".9"/>
  <rect class="pixel" x="54" y="41" width=".9" height=".9"/>
  <rect class="pixel" x="55" y="41" width=".9" height=".9"/>
  <rect class="pixel" x="42" y="42" width=".9" height=".9"/>
  <rect class="pixel" x="30" y="42" width=".9" height=".9"/>
  <rect class="pixel" x="31" y="42" width=".9" height=".9"/>
  <rect class="pixel" x="36" y="42" width=".9" height=".9"/>
  <rect class="pixel" x="41" y="42" width=".9" height=".9"/>
  <rect class="pixel" x="47" y="42" width=".9" height=".9"/>
  <rect class="pixel" x="54" y="42" width=".9" height=".9"/>
  <rect class="pixel" x="55" y="42" width=".9" height=".9"/>
  <rect class="pixel" x="60" y="42" width=".9" height=".9"/>
  <rect class="pixel" x="43" y="43" width=".9" height=".9"/>
  <rect class="pixel" x="27" y="43" width=".9" height=".9"/>
  <rect class="pixel" x="32" y="43" width=".9" height=".9"/>
  <rect class="pixel" x="33" y="43" width=".9" height=".9"/>
  <rect class="pixel" x="38" y="43" width=".9" height=".9"/>
  <rect class="pixel" x="44" y="43" width=".9" height=".9"/>
  <rect class="pixel" x="51" y="43" width=".9" height=".9"/>
  <rect class="pixel" x="56" y="43" width=".9" height=".9"/>
  <rect class="pixel" x="57" y="43" width=".9" height=".9"/>
  <rect class="pixel" x="44" y="44" width=".9" height=".9"/>
  <rect class="pixel" x="32" y="44" width=".9" height=".9"/>
  <rect class="pixel" x="33" y="44" width=".9" height=".9"/>
  <rect class="pixel" x="34" y="44" width=".9" height=".9"/>
  <rect class="pixel" x="43" y="44" width=".9" height=".9"/>
  <rect class="pixel" x="45" y="44" width=".9" height=".9"/>
  <rect class="pixel" x="56" y="44" width=".9" height=".9"/>
  <rect class="pixel" x="57" y="44" width=".9" height=".9"/>
  <rect class="pixel" x="58" y="44" width=".9" height=".9"/>
  <rect class="pixel" x="45" y="45" width=".9" height=".9"/>
  <rect class="pixel" x="33" y="45" width=".9" height=".9"/>
  <rect class="pixel" x="34" y="45" width=".9" height=".9"/>
  <rect class="pixel" x="35" y="45" width=".9" height=".9"/>
  <rect class="pixel" x="44" y="45" width=".9" height=".9"/>
  <rect class="pixel" x="46" y="45" width=".9" height=".9"/>
  <rect class="pixel" x="57" y="45" width=".9" height=".9"/>
  <rect class="pixel" x="58" y="45" width=".9" height=".9"/>
  <rect class="pixel" x="59" y="45" width=".9" height=".9"/>
  <rect class="pixel" x="46" y="46" width=".9" height=".9"/>
  <rect class="pixel" x="34" y="46" width=".9" height=".9"/>
  <rect class="pixel" x="35" y="46" width=".9" height=".9"/>
  <rect class="pixel" x="36" y="46" width=".9" height=".9"/>
  <rect class="pixel" x="45" y="46" width=".9" height=".9"/>
  <rect class="pixel" x="48" y="46" width=".9" height=".9"/>
  <rect class="pixel" x="58" y="46" width=".9" height=".9"/>
  <rect class="pixel" x="59" y="46" width=".9" height=".9"/>
  <rect class="pixel" x="62" y="46" width=".9" height=".9"/>
  <rect class="pixel" x="47" y="47" width=".9" height=".9"/>
  <rect class="pixel" x="31" y="47" width=".9" height=".9"/>
  <rect class="pixel" x="36" y="47" width=".9" height=".9"/>
  <rect class="pixel" x="42" y="47" width=".9" height=".9"/>
  <rect class="pixel" x="48" y="47" width=".9" height=".9"/>
  <rect class="pixel" x="49" y="47" width=".9" height=".9"/>
  <rect class="pixel" x="55" y="47" width=".9" height=".9"/>
  <rect class="pixel" x="60" y="47" width=".9" height=".9"/>
  <rect class="pixel" x="61" y="47" width=".9" height=".9"/>
  <rect class="pixel" x="48" y="48" width=".9" height=".9"/>
  <rect class="pixel" x="35" y="48" width=".9" height=".9"/>
  <rect class="pixel" x="36" y="48" width=".9" height=".9"/>
  <rect class="pixel" x="46" y="48" width=".9" height=".9"/>
  <rect class="pixel" x="47" y="48" width=".9" height=".9"/>
  <rect class="pixel" x="49" y="48" width=".9" height=".9"/>
  <rect class="pixel" x="59" y="48" width=".9" height=".9"/>
  <rect class="pixel" x="62" y="48" width=".9" height=".9"/>
  <rect class="pixel" x="63" y="48" width=".9" height=".9"/>
  <rect class="pixel" x="49" y="49" width=".9" height=".9"/>
  <rect class="pixel" x="36" y="49" width=".9" height=".9"/>
  <rect class="pixel" x="47" y="49" width=".9" height=".9"/>
  <rect class="pixel" x="48" y="49" width=".9" height=".9"/>
  <rect class="pixel" x="60" y="49" width=".9" height=".9"/>
  <rect class="pixel" x="61" y="49" width=".9" height=".9"/>
  <rect class="pixel" x="62" y="49" width=".9" height=".9"/>
  <rect class="pixel" x="63" y="49" width=".9" height=".9"/>
  <rect class="pixel" x="64" y="49" width=".9" height=".9"/>
  <rect class="pixel" x="50" y="50" width=".9" height=".9"/>
  <rect class="pixel" x="37" y="50" width=".9" height=".9"/>
  <rect class="pixel" x="39" y="50" width=".9" height=".9"/>
  <rect class="pixel" x="52" y="50" width=".9" height=".9"/>
  <rect class="pixel" x="65" y="50" width=".9" height=".9"/>
  <rect class="pixel" x="68" y="50" width=".9" height=".9"/>
  <rect class="pixel" x="51" y="51" width=".9" height=".9"/>
  <rect class="pixel" x="38" y="51" width=".9" height=".9"/>
  <rect class="pixel" x="43" y="51" width=".9" height=".9"/>
  <rect class="pixel" x="56" y="51" width=".9" height=".9"/>
  <rect class="pixel" x="66" y="51" width=".9" height=".9"/>
  <rect class="pixel" x="72" y="51" width=".9" height=".9"/>
  <rect class="pixel" x="52" y="52" width=".9" height=".9"/>
  <rect class="pixel" x="37" y="52" width=".9" height=".9"/>
  <rect class="pixel" x="39" y="52" width=".9" height=".9"/>
  <rect class="pixel" x="40" y="52" width=".9" height=".9"/>
  <rect class="pixel" x="50" y="52" width=".9" height=".9"/>
  <rect class="pixel" x="53" y="52" width=".9" height=".9"/>
  <rect class="pixel" x="65" y="52" width=".9" height=".9"/>
  <rect class="pixel" x="68" y="52" width=".9" height=".9"/>
  <rect class="pixel" x="69" y="52" width=".9" height=".9"/>
  <rect class="pixel" x="53" y="53" width=".9" height=".9"/>
  <rect class="pixel" x="39" y="53" width=".9" height=".9"/>
  <rect class="pixel" x="40" y="53" width=".9" height=".9"/>
  <rect class="pixel" x="41" y="53" width=".9" height=".9"/>
  <rect class="pixel" x="52" y="53" width=".9" height=".9"/>
  <rect class="pixel" x="54" y="53" width=".9" height=".9"/>
  <rect class="pixel" x="68" y="53" width=".9" height=".9"/>
  <rect class="pixel" x="69" y="53" width=".9" height=".9"/>
  <rect class="pixel" x="70" y="53" width=".9" height=".9"/>
  <rect class="pixel" x="54" y="54" width=".9" height=".9"/>
  <rect class="pixel" x="40" y="54" width=".9" height=".9"/>
  <rect class="pixel" x="41" y="54" width=".9" height=".9"/>
  <rect class="pixel" x="42" y="54" width=".9" height=".9"/>
  <rect class="pixel" x="53" y="54" width=".9" height=".9"/>
  <rect class="pixel" x="55" y="54" width=".9" height=".9"/>
  <rect class="pixel" x="69" y="54" width=".9" height=".9"/>
  <rect class="pixel" x="70" y="54" width=".9" height=".9"/>
  <rect class="pixel" x="71" y="54" width=".9" height=".9"/>
  <rect class="pixel" x="55" y="55" width=".9" height=".9"/>
  <rect class="pixel" x="41" y="55" width=".9" height=".9"/>
  <rect class="pixel" x="42" y="55" width=".9" height=".9"/>
  <rect class="pixel" x="47" y="55" width=".9" height=".9"/>
  <rect class="pixel" x="54" y="55" width=".9" height=".9"/>
  <rect class="pixel" x="60" y="55" width=".9" height=".9"/>
  <rect class="pixel" x="70" y="55" width=".9" height=".9"/>
  <rect class="pixel" x="71" y="55" width=".9" height=".9"/>
  <rect class="pixel" x="76" y="55" width=".9" height=".9"/>
  <rect class="pixel" x="56" y="56" width=".9" height=".9"/>
  <rect class="pixel" x="38" y="56" width=".9" height=".9"/>
  <rect class="pixel" x="43" y="56" width=".9" height=".9"/>
  <rect class="pixel" x="44" y="56" width=".9" height=".9"/>
  <rect class="pixel" x="51" y="56" width=".9" height=".9"/>
  <rect class="pixel" x="57" y="56" width=".9" height=".9"/>
  <rect class="pixel" x="66" y="56" width=".9" height=".9"/>
  <rect class="pixel" x="72" y="56" width=".9" height=".9"/>
  <rect class="pixel" x="73" y="56" width=".9" height=".9"/>
  <rect class="pixel" x="57" y="57" width=".9" height=".9"/>
  <rect class="pixel" x="43" y="57" width=".9" height=".9"/>
  <rect class="pixel" x="44" y="57" width=".9" height=".9"/>
  <rect class="pixel" x="45" y="57" width=".9" height=".9"/>
  <rect class="pixel" x="56" y="57" width=".9" height=".9"/>
  <rect class="pixel" x="58" y="57" width=".9" height=".9"/>
  <rect class="pixel" x="72" y="57" width=".9" height=".9"/>
  <rect class="pixel" x="73" y="57" width=".9" height=".9"/>
  <rect class="pixel" x="74" y="57" width=".9" height=".9"/>
  <rect class="pixel" x="58" y="58" width=".9" height=".9"/>
  <rect class="pixel" x="44" y="58" width=".9" height=".9"/>
  <rect class="pixel" x="45" y="58" width=".9" height=".9"/>
  <rect class="pixel" x="46" y="58" width=".9" height=".9"/>
  <rect class="pixel" x="57" y="58" width=".9" height=".9"/>
  <rect class="pixel" x="59" y="58" width=".9" height=".9"/>
  <rect class="pixel" x="73" y="58" width=".9" height=".9"/>
  <rect class="pixel" x="74" y="58" width=".9" height=".9"/>
  <rect class="pixel" x="75" y="58" width=".9" height=".9"/>
  <rect class="pixel" x="59" y="59" width=".9" height=".9"/>
  <rect class="pixel" x="45" y="59" width=".9" height=".9"/>
  <rect class="pixel" x="46" y="59" width=".9" height=".9"/>
  <rect class="pixel" x="48" y="59" width=".9" height=".9"/>
  <rect class="pixel" x="58" y="59" width=".9" height=".9"/>
  <rect class="pixel" x="62" y="59" width=".9" height=".9"/>
  <rect class="pixel" x="74" y="59" width=".9" height=".9"/>
  <rect class="pixel" x="75" y="59" width=".9" height=".9"/>
  <rect class="pixel" x="78" y="59" width=".9" height=".9"/>
  <rect class="pixel" x="60" y="60" width=".9" height=".9"/>
  <rect class="pixel" x="42" y="60" width=".9" height=".9"/>
  <rect class="pixel" x="47" y="60" width=".9" height=".9"/>
  <rect class="pixel" x="49" y="60" width=".9" height=".9"/>
  <rect class="pixel" x="55" y="60" width=".9" height=".9"/>
  <rect class="pixel" x="61" y="60" width=".9" height=".9"/>
  <rect class="pixel" x="71" y="60" width=".9" height=".9"/>
  <rect class="pixel" x="76" y="60" width=".9" height=".9"/>
  <rect class="pixel" x="77" y="60" width=".9" height=".9"/>
  <rect class="pixel" x="61" y="61" width=".9" height=".9"/>
  <rect class="pixel" x="47" y="61" width=".9" height=".9"/>
  <rect class="pixel" x="49" y="61" width=".9" height=".9"/>
  <rect class="pixel" x="60" y="61" width=".9" height=".9"/>
  <rect class="pixel" x="63" y="61" width=".9" height=".9"/>
  <rect class="pixel" x="64" y="61" width=".9" height=".9"/>
  <rect class="pixel" x="76" y="61" width=".9" height=".9"/>
  <rect class="pixel" x="77" y="61" width=".9" height=".9"/>
  <rect class="pixel" x="80" y="61" width=".9" height=".9"/>
  <rect class="pixel" x="62" y="62" width=".9" height=".9"/>
  <rect class="pixel" x="46" y="62" width=".9" height=".9"/>
  <rect class="pixel" x="48" y="62" width=".9" height=".9"/>
  <rect class="pixel" x="49" y="62" width=".9" height=".9"/>
  <rect class="pixel" x="59" y="62" width=".9" height=".9"/>
  <rect class="pixel" x="63" y="62" width=".9" height=".9"/>
  <rect class="pixel" x="75" y="62" width=".9" height=".9"/>
  <rect class="pixel" x="78" y="62" width=".9" height=".9"/>
  <rect class="pixel" x="79" y="62" width=".9" height=".9"/>
  <rect class="pixel" x="63" y="63" width=".9" height=".9"/>
  <rect class="pixel" x="48" y="63" width=".9" height=".9"/>
  <rect class="pixel" x="49" y="63" width=".9" height=".9"/>
  <rect class="pixel" x="61" y="63" width=".9" height=".9"/>
  <rect class="pixel" x="62" y="63" width=".9" height=".9"/>
  <rect class="pixel" x="64" y="63" width=".9" height=".9"/>
  <rect class="pixel" x="78" y="63" width=".9" height=".9"/>
  <rect class="pixel" x="79" y="63" width=".9" height=".9"/>
  <rect class="pixel" x="81" y="63" width=".9" height=".9"/>
  <rect class="pixel" x="64" y="64" width=".9" height=".9"/>
  <rect class="pixel" x="49" y="64" width=".9" height=".9"/>
  <rect class="pixel" x="61" y="64" width=".9" height=".9"/>
  <rect class="pixel" x="63" y="64" width=".9" height=".9"/>
  <rect class="pixel" x="67" y="64" width=".9" height=".9"/>
  <rect class="pixel" x="77" y="64" width=".9" height=".9"/>
  <rect class="pixel" x="79" y="64" width=".9" height=".9"/>
  <rect class="pixel" x="80" y="64" width=".9" height=".9"/>
  <rect class="pixel" x="81" y="64" width=".9" height=".9"/>
  <rect class="pixel" x="65" y="65" width=".9" height=".9"/>
  <rect class="pixel" x="50" y="65" width=".9" height=".9"/>
  <rect class="pixel" x="52" y="65" width=".9" height=".9"/>
  <rect class="pixel" x="68" y="65" width=".9" height=".9"/>
  <rect class="pixel" x="66" y="66" width=".9" height=".9"/>
  <rect class="pixel" x="51" y="66" width=".9" height=".9"/>
  <rect class="pixel" x="56" y="66" width=".9" height=".9"/>
  <rect class="pixel" x="72" y="66" width=".9" height=".9"/>
  <rect class="pixel" x="67" y="67" width=".9" height=".9"/>
  <rect class="pixel" x="64" y="67" width=".9" height=".9"/>
  <rect class="pixel" x="80" y="67" width=".9" height=".9"/>
  <rect class="pixel" x="81" y="67" width=".9" height=".9"/>
  <rect class="pixel" x="68" y="68" width=".9" height=".9"/>
  <rect class="pixel" x="50" y="68" width=".9" height=".9"/>
  <rect class="pixel" x="52" y="68" width=".9" height=".9"/>
  <rect class="pixel" x="53" y="68" width=".9" height=".9"/>
  <rect class="pixel" x="65" y="68" width=".9" height=".9"/>
  <rect class="pixel" x="69" y="68" width=".9" height=".9"/>
  <rect class="pixel" x="69" y="69" width=".9" height=".9"/>
  <rect class="pixel" x="52" y="69" width=".9" height=".9"/>
  <rect class="pixel" x="53" y="69" width=".9" height=".9"/>
  <rect class="pixel" x="54" y="69" width=".9" height=".9"/>
  <rect class="pixel" x="68" y="69" width=".9" height=".9"/>
  <rect class="pixel" x="70" y="69" width=".9" height=".9"/>
  <rect class="pixel" x="70" y="70" width=".9" height=".9"/>
  <rect class="pixel" x="53" y="70" width=".9" height=".9"/>
  <rect class="pixel" x="54" y="70" width=".9" height=".9"/>
  <rect class="pixel" x="55" y="70" width=".9" height=".9"/>
  <rect class="pixel" x="69" y="70" width=".9" height=".9"/>
  <rect class="pixel" x="71" y="70" width=".9" height=".9"/>
  <rect class="pixel" x="71" y="71" width=".9" height=".9"/>
  <rect class="pixel" x="54" y="71" width=".9" height=".9"/>
  <rect class="pixel" x="55" y="71" width=".9" height=".9"/>
  <rect class="pixel" x="60" y="71" width=".9" height=".9"/>
  <rect class="pixel" x="70" y="71" width=".9" height=".9"/>
  <rect class="pixel" x="76" y="71" width=".9" height=".9"/>
  <rect class="pixel" x="72" y="72" width=".9" height=".9"/>
  <rect class="pixel" x="51" y="72" width=".9" height=".9"/>
  <rect class="pixel" x="56" y="72" width=".9" height=".9"/>
  <rect class="pixel" x="57" y="72" width=".9" height=".9"/>
  <rect class="pixel" x="66" y="72" width=".9" height=".9"/>
  <rect class="pixel" x="73" y="72" width=".9" height=".9"/>
  <rect class="pixel" x="73" y="73" width=".9" height=".9"/>
  <rect class="pixel" x="56" y="73" width=".9" height=".9"/>
  <rect class="pixel" x="57" y="73" width=".9" height=".9"/>
  <rect class="pixel" x="58" y="73" width=".9" height=".9"/>
  <rect class="pixel" x="72" y="73" width=".9" height=".9"/>
  <rect class="pixel" x="74" y="73" width=".9" height=".9"/>
  <rect class="pixel" x="74" y="74" width=".9" height=".9"/>
  <rect class="pixel" x="57" y="74" width=".9" height=".9"/>
  <rect class="pixel" x="58" y="74" width=".9" height=".9"/>
  <rect class="pixel" x="59" y="74" width=".9" height=".9"/>
  <rect class="pixel" x="73" y="74" width=".9" height=".9"/>
  <rect class="pixel" x="75" y="74" width=".9" height=".9"/>
  <rect class="pixel" x="75" y="75" width=".9" height=".9"/>
  <rect class="pixel" x="58" y="75" width=".9" height=".9"/>
  <rect class="pixel" x="59" y="75" width=".9" height=".9"/>
  <rect class="pixel" x="62" y="75" width=".9" height=".9"/>
  <rect class="pixel" x="74" y="75" width=".9" height=".9"/>
  <rect class="pixel" x="78" y="75" width=".9" height=".9"/>
  <rect class="pixel" x="76" y="76" width=".9" height=".9"/>
  <rect class="pixel" x="55" y="76" width=".9" height=".9"/>
  <rect class="pixel" x="60" y="76" width=".9" height=".9"/>
  <rect class="pixel" x="61" y="76" width=".9" height=".9"/>
  <rect class="pixel" x="71" y="76" width=".9" height=".9"/>
  <rect class="pixel" x="77" y="76" width=".9" height=".9"/>
  <rect class="pixel" x="77" y="77" width=".9" height=".9"/>
  <rect class="pixel" x="60" y="77" width=".9" height=".9"/>
  <rect class="pixel" x="61" y="77" width=".9" height=".9"/>
  <rect class="pixel" x="64" y="77" width=".9" height=".9"/>
  <rect class="pixel" x="76" y="77" width=".9" height=".9"/>
  <rect class="pixel" x="80" y="77" width=".9" height=".9"/>
  <rect class="pixel" x="78" y="78" width=".9" height=".9"/>
  <rect class="pixel" x="59" y="78" width=".9" height=".9"/>
  <rect class="pixel" x="62" y="78" width=".9" height=".9"/>
  <rect class="pixel" x="63" y="78" width=".9" height=".9"/>
  <rect class="pixel" x="75" y="78" width=".9" height=".9"/>
  <rect class="pixel" x="79" y="78" width=".9" height=".9"/>
  <rect class="pixel" x="79" y="79" width=".9" height=".9"/>
  <rect class="pixel" x="62" y="79" width=".9" height=".9"/>
  <rect class="pixel" x="63" y="79" width=".9" height=".9"/>
  <rect class="pixel" x="64" y="79" width=".9" height=".9"/>
  <rect class="pixel" x="78" y="79" width=".9" height=".9"/>
  <rect class="pixel" x="81" y="79" width=".9" height=".9"/>
  <rect class="pixel" x="80" y="80" width=".9" height=".9"/>
  <rect class="pixel" x="61" y="80" width=".9" height=".9"/>
  <rect class="pixel" x="64" y="80" width=".9" height=".9"/>
  <rect class="pixel" x="67" y="80" width=".9" height=".9"/>
  <rect class="pixel" x="77" y="80" width=".9" height=".9"/>
  <rect class="pixel" x="81" y="80" width=".9" height=".9"/>
  <rect class="pixel" x="81" y="81" width=".9" height=".9"/>
  <rect class="pixel" x="63" y="81" width=".9" height=".9"/>
  <rect class="pixel" x="64" y="81" width=".9" height=".9"/>
  <rect class="pixel" x="67" y="81" width=".9" height=".9"/>
  <rect class="pixel" x="79" y="81" width=".9" height=".9"/>
  <rect class="pixel" x="80" y="81" width=".9" height=".9"/>
</svg>
